# xmcd
#
# Track frame offsets: 
#        150
#        20652
#        46922
#        65724
#        86430
#        103445
#        121267
#        142075
#        160940
#        190494
#        206608
#        226468
#
# Disc length: 3448 seconds
#
# Revision: 0
# Processed by: cddbd v1.5.2PL0 Copyright (c) Steve Scherf et al.
# Submitted via: ExactAudioCopy v1.0b4
#
DISCID=b10d760c
DTITLE=Leslie West - Leslie West Collection
DYEAR=2007
DGENRE=Blues Rock
TTITLE0=Boom Boom
TTITLE1=Don't Start Me Talkin'
TTITLE2=Crosscut Saw
TTITLE3=Blues Before Sunrise
TTITLE4=Hit The Road Jack
TTITLE5=Crossroads
TTITLE6=House of the Rising Sun
TTITLE7=Baby Please Don't Go
TTITLE8=Sinner's Prayer
TTITLE9=Look at Little Sister
TTITLE10=Whiskey Train
TTITLE11=Summertime
EXTD=
EXTT0=
EXTT1=
EXTT2=
EXTT3=
EXTT4=
EXTT5=
EXTT6=
EXTT7=
EXTT8=
EXTT9=
EXTT10=
EXTT11=
PLAYORDER=
